<svg xmlns="http://www.w3.org/2000/svg" width="175.01" height="166.19" version="1.0">
  <g fill="#1793d1">
    <path fill-rule="evenodd" d="M83.06 0c-7.4 18.13-11.86 30-20.1 47.59A129.75 129.75 0 0 0 84.28 66.2c-10.82-4.45-18.2-8.92-23.72-13.56C50.02 74.65 33.5 105.97 0 166.18c26.33-15.2 46.75-24.58 65.78-28.16a48.21 48.21 0 0 1-1.25-11.28l.03-.84c.42-16.88 9.2-29.85 19.6-28.97 10.39.88 18.47 15.28 18.05 32.15a47.66 47.66 0 0 1-1.06 9.07c18.82 3.68 39.02 13.03 65 28.03-5.12-9.43-9.7-17.94-14.06-26.03-6.88-5.33-14.06-12.27-28.69-19.78 10.06 2.61 17.26 5.63 22.87 9C101.87 46.7 98.28 35.72 83.06-.01z"/>
    <path d="M166.98 151.35v-4.55h-1.7v-.61h4.09v.6h-1.7v4.56h-.7m3.11 0v-5.16h1.03l1.22 3.66.25.76.28-.83 1.23-3.6h.92v5.17h-.66v-4.32l-1.5 4.32h-.61l-1.5-4.4v4.4h-.66"/>
  </g>
</svg>
